<svg xmlns="http://www.w3.org/2000/svg" version="1.1" xmlns:xlink="http://www.w3.org/1999/xlink" xmlns:svgjs="http://svgjs.com/svgjs" width="1440" height="800" preserveAspectRatio="none" viewBox="0 0 1440 800"><g mask="url(&quot;#SvgjsMask1120&quot;)" fill="none"><rect width="1440" height="800" x="0" y="0" fill="#0e2a47"></rect><path d="M83 800L883 0L986.5 0L186.5 800z" fill="url(#SvgjsLinearGradient1121)"></path><path d="M491.20000000000005 800L1291.2 0L1459.2 0L659.2 800z" fill="url(#SvgjsLinearGradient1121)"></path><path d="M1382 800L582 0L405 0L1205 800z" fill="url(#SvgjsLinearGradient1122)"></path><path d="M926.8 800L126.79999999999995 0L-278.20000000000005 0L521.8 800z" fill="url(#SvgjsLinearGradient1122)"></path><path d="M640.0983658708636 800L1440 0.09836587086363124L1440 800z" fill="url(#SvgjsLinearGradient1121)"></path><path d="M0 800L799.9016341291364 800L 0 0.09836587086363124z" fill="url(#SvgjsLinearGradient1122)"></path></g><defs><mask id="SvgjsMask1120"><rect width="1440" height="800" fill="#ffffff"></rect></mask><linearGradient x1="0%" y1="100%" x2="100%" y2="0%" id="SvgjsLinearGradient1121"><stop stop-color="rgba(15, 70, 185, 0.2)" offset="0"></stop><stop stop-opacity="0" stop-color="rgba(15, 70, 185, 0.2)" offset="0.66"></stop></linearGradient><linearGradient x1="100%" y1="100%" x2="0%" y2="0%" id="SvgjsLinearGradient1122"><stop stop-color="rgba(15, 70, 185, 0.2)" offset="0"></stop><stop stop-opacity="0" stop-color="rgba(15, 70, 185, 0.2)" offset="0.66"></stop></linearGradient></defs></svg>